<?xml version="1.0" encoding="utf-8" standalone="no"?>
<!DOCTYPE svg PUBLIC "-//W3C//DTD SVG 1.1//EN"
  "http://www.w3.org/Graphics/SVG/1.1/DTD/svg11.dtd">
<svg xmlns:xlink="http://www.w3.org/1999/xlink" width="1213.483044pt" height="757.196701pt" viewBox="0 0 1213.483044 757.196701" xmlns="http://www.w3.org/2000/svg" version="1.1">
 <metadata>
  <rdf:RDF xmlns:dc="http://purl.org/dc/elements/1.1/" xmlns:cc="http://creativecommons.org/ns#" xmlns:rdf="http://www.w3.org/1999/02/22-rdf-syntax-ns#">
   <cc:Work>
    <dc:type rdf:resource="http://purl.org/dc/dcmitype/StillImage"/>
    <dc:date>2025-07-09T02:24:35.848479</dc:date>
    <dc:format>image/svg+xml</dc:format>
    <dc:creator>
     <cc:Agent>
      <dc:title>Matplotlib v3.10.3, https://matplotlib.org/</dc:title>
     </cc:Agent>
    </dc:creator>
   </cc:Work>
  </rdf:RDF>
 </metadata>
 <defs>
  <style type="text/css">*{stroke-linejoin: round; stroke-linecap: butt}</style>
 </defs>
 <g id="figure_1">
  <g id="patch_1">
   <path d="M 0 757.196701 
L 1213.483044 757.196701 
L 1213.483044 0 
L 0 0 
z
" style="fill: #ffffff"/>
  </g>
  <g id="axes_1">
   <g id="patch_2">
    <path d="M 55.020625 718.452639 
L 1149.420625 718.452639 
L 1149.420625 44.532639 
L 55.020625 44.532639 
z
" style="fill: #ffffff"/>
   </g>
   <g id="matplotlib.axis_1">
    <g id="xtick_1">
     <g id="line2d_1">
      <path d="M 104.76608 718.452639 
L 104.76608 44.532639 
" clip-path="url(#p5207a7defa)" style="fill: none; stroke: #ecf0f1; stroke-opacity: 0.3; stroke-width: 0.5; stroke-linecap: square"/>
     </g>
     <g id="line2d_2">
      <defs>
       <path id="mcc7eda1d95" d="M 0 0 
L 0 4 
" style="stroke: #7f8c8d"/>
      </defs>
      <g>
       <use xlink:href="#mcc7eda1d95" x="104.76608" y="718.452639" style="fill: #7f8c8d; stroke: #7f8c8d"/>
      </g>
     </g>
     <g id="text_1">
      <!-- 1960 -->
      <g style="fill: #7f8c8d" transform="translate(93.64733 733.093264) scale(0.1 -0.1)">
       <defs>
        <path id="HelveticaNeue-31" d="M 2278 0 
L 2278 4538 
L 1862 4538 
Q 1818 4282 1696 4115 
Q 1574 3949 1398 3853 
Q 1222 3757 1004 3721 
Q 787 3686 557 3686 
L 557 3251 
L 1734 3251 
L 1734 0 
L 2278 0 
z
" transform="scale(0.015625)"/>
        <path id="HelveticaNeue-39" d="M 858 1094 
L 314 1094 
Q 365 506 742 218 
Q 1120 -70 1690 -70 
Q 2515 -70 2889 560 
Q 3264 1190 3264 2368 
Q 3264 3014 3139 3433 
Q 3014 3853 2803 4096 
Q 2592 4339 2310 4438 
Q 2029 4538 1709 4538 
Q 1382 4538 1107 4429 
Q 832 4320 633 4125 
Q 435 3930 326 3658 
Q 218 3386 218 3059 
Q 218 2726 310 2444 
Q 403 2163 585 1964 
Q 768 1766 1037 1654 
Q 1306 1542 1651 1542 
Q 1984 1542 2265 1712 
Q 2547 1882 2701 2170 
L 2714 2157 
Q 2688 1267 2438 835 
Q 2189 403 1690 403 
Q 1363 403 1126 582 
Q 890 762 858 1094 
z
M 2618 3021 
Q 2618 2822 2554 2640 
Q 2490 2458 2368 2320 
Q 2246 2182 2073 2102 
Q 1901 2022 1690 2022 
Q 1491 2022 1328 2102 
Q 1165 2182 1046 2316 
Q 928 2451 861 2624 
Q 794 2797 794 2982 
Q 794 3194 842 3386 
Q 890 3578 995 3728 
Q 1101 3878 1270 3968 
Q 1440 4058 1683 4058 
Q 1914 4058 2086 3974 
Q 2259 3891 2377 3747 
Q 2496 3603 2557 3417 
Q 2618 3232 2618 3021 
z
" transform="scale(0.015625)"/>
        <path id="HelveticaNeue-36" d="M 2650 3379 
L 3194 3379 
Q 3142 3942 2809 4240 
Q 2477 4538 1914 4538 
Q 1427 4538 1107 4333 
Q 787 4128 595 3789 
Q 403 3450 323 3011 
Q 243 2573 243 2106 
Q 243 1747 297 1363 
Q 352 979 518 659 
Q 685 339 992 134 
Q 1299 -70 1805 -70 
Q 2234 -70 2525 74 
Q 2816 218 2992 438 
Q 3168 659 3245 928 
Q 3322 1197 3322 1446 
Q 3322 1760 3226 2029 
Q 3130 2298 2954 2496 
Q 2778 2694 2518 2806 
Q 2259 2918 1933 2918 
Q 1562 2918 1277 2777 
Q 992 2637 800 2323 
L 787 2336 
Q 794 2598 838 2899 
Q 883 3200 1001 3459 
Q 1120 3718 1331 3888 
Q 1542 4058 1888 4058 
Q 2214 4058 2412 3872 
Q 2611 3686 2650 3379 
z
M 1830 2438 
Q 2061 2438 2233 2355 
Q 2406 2272 2521 2134 
Q 2637 1997 2691 1808 
Q 2746 1619 2746 1408 
Q 2746 1210 2685 1027 
Q 2624 845 2509 704 
Q 2394 563 2224 483 
Q 2054 403 1830 403 
Q 1606 403 1430 483 
Q 1254 563 1136 697 
Q 1018 832 954 1017 
Q 890 1203 890 1414 
Q 890 1626 950 1814 
Q 1011 2003 1132 2140 
Q 1254 2278 1427 2358 
Q 1600 2438 1830 2438 
z
" transform="scale(0.015625)"/>
        <path id="HelveticaNeue-30" d="M 845 2234 
Q 845 2400 848 2601 
Q 851 2803 880 3004 
Q 909 3206 963 3398 
Q 1018 3590 1123 3734 
Q 1229 3878 1389 3968 
Q 1549 4058 1779 4058 
Q 2010 4058 2170 3968 
Q 2330 3878 2435 3734 
Q 2541 3590 2595 3398 
Q 2650 3206 2678 3004 
Q 2707 2803 2710 2601 
Q 2714 2400 2714 2234 
Q 2714 1978 2698 1661 
Q 2682 1344 2595 1065 
Q 2509 787 2317 595 
Q 2125 403 1779 403 
Q 1434 403 1242 595 
Q 1050 787 963 1065 
Q 877 1344 861 1661 
Q 845 1978 845 2234 
z
M 269 2227 
Q 269 1978 281 1709 
Q 294 1440 345 1184 
Q 397 928 493 701 
Q 589 474 755 301 
Q 922 128 1174 29 
Q 1427 -70 1779 -70 
Q 2138 -70 2387 29 
Q 2637 128 2803 301 
Q 2970 474 3066 701 
Q 3162 928 3213 1184 
Q 3264 1440 3277 1709 
Q 3290 1978 3290 2227 
Q 3290 2477 3277 2745 
Q 3264 3014 3213 3270 
Q 3162 3526 3066 3756 
Q 2970 3987 2803 4160 
Q 2637 4333 2384 4435 
Q 2131 4538 1779 4538 
Q 1427 4538 1174 4435 
Q 922 4333 755 4160 
Q 589 3987 493 3756 
Q 397 3526 345 3270 
Q 294 3014 281 2745 
Q 269 2477 269 2227 
z
" transform="scale(0.015625)"/>
       </defs>
       <use xlink:href="#HelveticaNeue-31"/>
       <use xlink:href="#HelveticaNeue-39" transform="translate(55.599991 0)"/>
       <use xlink:href="#HelveticaNeue-36" transform="translate(111.199982 0)"/>
       <use xlink:href="#HelveticaNeue-30" transform="translate(166.799973 0)"/>
      </g>
     </g>
    </g>
    <g id="xtick_2">
     <g id="line2d_3">
      <path d="M 262.688157 718.452639 
L 262.688157 44.532639 
" clip-path="url(#p5207a7defa)" style="fill: none; stroke: #ecf0f1; stroke-opacity: 0.3; stroke-width: 0.5; stroke-linecap: square"/>
     </g>
     <g id="line2d_4">
      <g>
       <use xlink:href="#mcc7eda1d95" x="262.688157" y="718.452639" style="fill: #7f8c8d; stroke: #7f8c8d"/>
      </g>
     </g>
     <g id="text_2">
      <!-- 1970 -->
      <g style="fill: #7f8c8d" transform="translate(251.569407 733.093264) scale(0.1 -0.1)">
       <defs>
        <path id="HelveticaNeue-37" d="M 3258 3994 
L 3258 4461 
L 320 4461 
L 320 3949 
L 2701 3949 
Q 2342 3571 2032 3123 
Q 1722 2675 1485 2172 
Q 1248 1670 1097 1123 
Q 947 576 909 0 
L 1517 0 
Q 1549 531 1696 1094 
Q 1843 1658 2076 2189 
Q 2310 2720 2611 3187 
Q 2912 3654 3258 3994 
z
" transform="scale(0.015625)"/>
       </defs>
       <use xlink:href="#HelveticaNeue-31"/>
       <use xlink:href="#HelveticaNeue-39" transform="translate(55.599991 0)"/>
       <use xlink:href="#HelveticaNeue-37" transform="translate(111.199982 0)"/>
       <use xlink:href="#HelveticaNeue-30" transform="translate(166.799973 0)"/>
      </g>
     </g>
    </g>
    <g id="xtick_3">
     <g id="line2d_5">
      <path d="M 420.610235 718.452639 
L 420.610235 44.532639 
" clip-path="url(#p5207a7defa)" style="fill: none; stroke: #ecf0f1; stroke-opacity: 0.3; stroke-width: 0.5; stroke-linecap: square"/>
     </g>
     <g id="line2d_6">
      <g>
       <use xlink:href="#mcc7eda1d95" x="420.610235" y="718.452639" style="fill: #7f8c8d; stroke: #7f8c8d"/>
      </g>
     </g>
     <g id="text_3">
      <!-- 1980 -->
      <g style="fill: #7f8c8d" transform="translate(409.491485 733.093264) scale(0.1 -0.1)">
       <defs>
        <path id="HelveticaNeue-38" d="M 992 3360 
Q 992 3533 1056 3661 
Q 1120 3789 1225 3878 
Q 1331 3968 1478 4013 
Q 1626 4058 1786 4058 
Q 2118 4058 2332 3882 
Q 2547 3706 2547 3360 
Q 2547 3014 2336 2822 
Q 2125 2630 1798 2630 
Q 1632 2630 1485 2675 
Q 1338 2720 1229 2809 
Q 1120 2899 1056 3036 
Q 992 3174 992 3360 
z
M 416 3379 
Q 416 3072 589 2813 
Q 762 2554 1050 2438 
Q 666 2304 461 2006 
Q 256 1709 256 1306 
Q 256 960 374 701 
Q 493 442 701 269 
Q 909 96 1190 13 
Q 1472 -70 1798 -70 
Q 2112 -70 2387 19 
Q 2662 109 2864 285 
Q 3066 461 3184 717 
Q 3302 973 3302 1306 
Q 3302 1728 3104 2019 
Q 2906 2310 2496 2438 
Q 2784 2566 2953 2819 
Q 3123 3072 3123 3379 
Q 3123 3597 3046 3805 
Q 2970 4013 2806 4176 
Q 2643 4339 2380 4438 
Q 2118 4538 1747 4538 
Q 1485 4538 1245 4461 
Q 1005 4384 819 4237 
Q 634 4090 525 3875 
Q 416 3661 416 3379 
z
M 832 1280 
Q 832 1478 905 1638 
Q 979 1798 1110 1913 
Q 1242 2029 1418 2089 
Q 1594 2150 1792 2150 
Q 1984 2150 2153 2083 
Q 2323 2016 2451 1901 
Q 2579 1786 2652 1629 
Q 2726 1472 2726 1286 
Q 2726 1094 2659 934 
Q 2592 774 2467 656 
Q 2342 538 2172 470 
Q 2003 403 1798 403 
Q 1376 403 1104 636 
Q 832 870 832 1280 
z
" transform="scale(0.015625)"/>
       </defs>
       <use xlink:href="#HelveticaNeue-31"/>
       <use xlink:href="#HelveticaNeue-39" transform="translate(55.599991 0)"/>
       <use xlink:href="#HelveticaNeue-38" transform="translate(111.199982 0)"/>
       <use xlink:href="#HelveticaNeue-30" transform="translate(166.799973 0)"/>
      </g>
     </g>
    </g>
    <g id="xtick_4">
     <g id="line2d_7">
      <path d="M 578.532313 718.452639 
L 578.532313 44.532639 
" clip-path="url(#p5207a7defa)" style="fill: none; stroke: #ecf0f1; stroke-opacity: 0.3; stroke-width: 0.5; stroke-linecap: square"/>
     </g>
     <g id="line2d_8">
      <g>
       <use xlink:href="#mcc7eda1d95" x="578.532313" y="718.452639" style="fill: #7f8c8d; stroke: #7f8c8d"/>
      </g>
     </g>
     <g id="text_4">
      <!-- 1990 -->
      <g style="fill: #7f8c8d" transform="translate(567.413563 733.093264) scale(0.1 -0.1)">
       <use xlink:href="#HelveticaNeue-31"/>
       <use xlink:href="#HelveticaNeue-39" transform="translate(55.599991 0)"/>
       <use xlink:href="#HelveticaNeue-39" transform="translate(111.199982 0)"/>
       <use xlink:href="#HelveticaNeue-30" transform="translate(166.799973 0)"/>
      </g>
     </g>
    </g>
    <g id="xtick_5">
     <g id="line2d_9">
      <path d="M 736.454391 718.452639 
L 736.454391 44.532639 
" clip-path="url(#p5207a7defa)" style="fill: none; stroke: #ecf0f1; stroke-opacity: 0.3; stroke-width: 0.5; stroke-linecap: square"/>
     </g>
     <g id="line2d_10">
      <g>
       <use xlink:href="#mcc7eda1d95" x="736.454391" y="718.452639" style="fill: #7f8c8d; stroke: #7f8c8d"/>
      </g>
     </g>
     <g id="text_5">
      <!-- 2000 -->
      <g style="fill: #7f8c8d" transform="translate(725.335641 733.093264) scale(0.1 -0.1)">
       <defs>
        <path id="HelveticaNeue-32" d="M 282 2931 
L 826 2931 
Q 819 3136 867 3337 
Q 915 3539 1024 3699 
Q 1133 3859 1302 3958 
Q 1472 4058 1709 4058 
Q 1888 4058 2048 4000 
Q 2208 3942 2326 3833 
Q 2445 3725 2515 3574 
Q 2586 3424 2586 3238 
Q 2586 3002 2512 2822 
Q 2438 2643 2294 2489 
Q 2150 2336 1932 2185 
Q 1715 2035 1427 1856 
Q 1190 1715 972 1555 
Q 755 1395 582 1184 
Q 410 973 298 688 
Q 186 403 154 0 
L 3117 0 
L 3117 480 
L 787 480 
Q 826 691 950 854 
Q 1075 1018 1251 1158 
Q 1427 1299 1638 1424 
Q 1850 1549 2061 1677 
Q 2272 1811 2470 1958 
Q 2669 2106 2822 2288 
Q 2976 2470 3069 2700 
Q 3162 2931 3162 3232 
Q 3162 3552 3050 3795 
Q 2938 4038 2746 4201 
Q 2554 4365 2294 4451 
Q 2035 4538 1741 4538 
Q 1382 4538 1100 4416 
Q 819 4294 630 4080 
Q 442 3866 352 3571 
Q 262 3277 282 2931 
z
" transform="scale(0.015625)"/>
       </defs>
       <use xlink:href="#HelveticaNeue-32"/>
       <use xlink:href="#HelveticaNeue-30" transform="translate(55.599991 0)"/>
       <use xlink:href="#HelveticaNeue-30" transform="translate(111.199982 0)"/>
       <use xlink:href="#HelveticaNeue-30" transform="translate(166.799973 0)"/>
      </g>
     </g>
    </g>
    <g id="xtick_6">
     <g id="line2d_11">
      <path d="M 894.376469 718.452639 
L 894.376469 44.532639 
" clip-path="url(#p5207a7defa)" style="fill: none; stroke: #ecf0f1; stroke-opacity: 0.3; stroke-width: 0.5; stroke-linecap: square"/>
     </g>
     <g id="line2d_12">
      <g>
       <use xlink:href="#mcc7eda1d95" x="894.376469" y="718.452639" style="fill: #7f8c8d; stroke: #7f8c8d"/>
      </g>
     </g>
     <g id="text_6">
      <!-- 2010 -->
      <g style="fill: #7f8c8d" transform="translate(883.257719 733.093264) scale(0.1 -0.1)">
       <use xlink:href="#HelveticaNeue-32"/>
       <use xlink:href="#HelveticaNeue-30" transform="translate(55.599991 0)"/>
       <use xlink:href="#HelveticaNeue-31" transform="translate(111.199982 0)"/>
       <use xlink:href="#HelveticaNeue-30" transform="translate(166.799973 0)"/>
      </g>
     </g>
    </g>
    <g id="xtick_7">
     <g id="line2d_13">
      <path d="M 1052.298547 718.452639 
L 1052.298547 44.532639 
" clip-path="url(#p5207a7defa)" style="fill: none; stroke: #ecf0f1; stroke-opacity: 0.3; stroke-width: 0.5; stroke-linecap: square"/>
     </g>
     <g id="line2d_14">
      <g>
       <use xlink:href="#mcc7eda1d95" x="1052.298547" y="718.452639" style="fill: #7f8c8d; stroke: #7f8c8d"/>
      </g>
     </g>
     <g id="text_7">
      <!-- 2020 -->
      <g style="fill: #7f8c8d" transform="translate(1041.179797 733.093264) scale(0.1 -0.1)">
       <use xlink:href="#HelveticaNeue-32"/>
       <use xlink:href="#HelveticaNeue-30" transform="translate(55.599991 0)"/>
       <use xlink:href="#HelveticaNeue-32" transform="translate(111.199982 0)"/>
       <use xlink:href="#HelveticaNeue-30" transform="translate(166.799973 0)"/>
      </g>
     </g>
    </g>
    <g id="text_8">
     <!-- Year -->
     <g style="fill: #2c3e50" transform="translate(590.558125 747.632326) scale(0.12 -0.12)">
      <defs>
       <path id="HelveticaNeue-59" d="M 2387 1869 
L 4134 4570 
L 3443 4570 
L 2106 2394 
L 736 4570 
L 13 4570 
L 1779 1869 
L 1779 0 
L 2387 0 
L 2387 1869 
z
" transform="scale(0.015625)"/>
       <path id="HelveticaNeue-65" d="M 2707 1971 
L 806 1971 
Q 819 2163 889 2332 
Q 960 2502 1081 2630 
Q 1203 2758 1372 2832 
Q 1542 2906 1754 2906 
Q 1958 2906 2128 2832 
Q 2298 2758 2422 2633 
Q 2547 2509 2620 2336 
Q 2694 2163 2707 1971 
z
M 3232 1050 
L 2694 1050 
Q 2624 723 2403 563 
Q 2182 403 1837 403 
Q 1568 403 1369 492 
Q 1171 582 1043 732 
Q 915 883 857 1078 
Q 800 1274 806 1491 
L 3283 1491 
Q 3296 1792 3229 2125 
Q 3162 2458 2986 2739 
Q 2810 3021 2518 3203 
Q 2227 3386 1786 3386 
Q 1446 3386 1161 3258 
Q 877 3130 669 2899 
Q 461 2669 345 2355 
Q 230 2042 230 1664 
Q 243 1286 342 966 
Q 442 646 640 416 
Q 838 186 1129 58 
Q 1421 -70 1818 -70 
Q 2381 -70 2752 211 
Q 3123 493 3232 1050 
z
" transform="scale(0.015625)"/>
       <path id="HelveticaNeue-61" d="M 3341 13 
Q 3200 -70 2950 -70 
Q 2739 -70 2614 48 
Q 2490 166 2490 435 
Q 2266 166 1968 48 
Q 1670 -70 1325 -70 
Q 1101 -70 899 -19 
Q 698 32 550 141 
Q 403 250 316 426 
Q 230 602 230 851 
Q 230 1133 326 1312 
Q 422 1491 579 1603 
Q 736 1715 937 1772 
Q 1139 1830 1350 1869 
Q 1574 1914 1776 1936 
Q 1978 1958 2131 2000 
Q 2285 2042 2374 2122 
Q 2464 2202 2464 2355 
Q 2464 2534 2397 2643 
Q 2330 2752 2224 2809 
Q 2118 2867 1987 2886 
Q 1856 2906 1728 2906 
Q 1382 2906 1152 2774 
Q 922 2643 902 2278 
L 358 2278 
Q 371 2586 486 2797 
Q 602 3008 794 3139 
Q 986 3270 1232 3328 
Q 1478 3386 1760 3386 
Q 1984 3386 2205 3354 
Q 2426 3322 2605 3222 
Q 2784 3123 2893 2944 
Q 3002 2765 3002 2477 
L 3002 774 
Q 3002 582 3024 492 
Q 3046 403 3174 403 
Q 3245 403 3341 435 
L 3341 13 
z
M 2458 1709 
Q 2355 1632 2188 1597 
Q 2022 1562 1840 1539 
Q 1658 1517 1472 1488 
Q 1286 1459 1139 1395 
Q 992 1331 899 1212 
Q 806 1094 806 890 
Q 806 755 860 662 
Q 915 570 1001 512 
Q 1088 454 1203 428 
Q 1318 403 1446 403 
Q 1715 403 1907 476 
Q 2099 550 2220 662 
Q 2342 774 2400 905 
Q 2458 1037 2458 1152 
L 2458 1709 
z
" transform="scale(0.015625)"/>
       <path id="HelveticaNeue-72" d="M 390 3309 
L 390 0 
L 934 0 
L 934 1472 
Q 934 1792 998 2038 
Q 1062 2285 1203 2457 
Q 1344 2630 1574 2720 
Q 1805 2810 2131 2810 
L 2131 3386 
Q 1690 3398 1402 3206 
Q 1114 3014 915 2611 
L 902 2611 
L 902 3309 
L 390 3309 
z
" transform="scale(0.015625)"/>
      </defs>
      <use xlink:href="#HelveticaNeue-59"/>
      <use xlink:href="#HelveticaNeue-65" transform="translate(53.674988 0)"/>
      <use xlink:href="#HelveticaNeue-61" transform="translate(107.374985 0)"/>
      <use xlink:href="#HelveticaNeue-72" transform="translate(161.074982 0)"/>
     </g>
    </g>
   </g>
   <g id="matplotlib.axis_2">
    <g id="ytick_1">
     <g id="line2d_15">
      <path d="M 55.020625 709.823804 
L 1149.420625 709.823804 
" clip-path="url(#p5207a7defa)" style="fill: none; stroke: #ecf0f1; stroke-opacity: 0.3; stroke-width: 0.5; stroke-linecap: square"/>
     </g>
     <g id="line2d_16">
      <defs>
       <path id="m5b5fe0084a" d="M 0 0 
L -4 0 
" style="stroke: #7f8c8d"/>
      </defs>
      <g>
       <use xlink:href="#m5b5fe0084a" x="55.020625" y="709.823804" style="fill: #7f8c8d; stroke: #7f8c8d"/>
      </g>
     </g>
     <g id="text_9">
      <!-- 400M -->
      <g style="fill: #7f8c8d" transform="translate(22.133125 713.394117) scale(0.1 -0.1)">
       <defs>
        <path id="HelveticaNeue-34" d="M 2170 1542 
L 646 1542 
L 2157 3763 
L 2170 3763 
L 2170 1542 
z
M 2682 1542 
L 2682 4538 
L 2246 4538 
L 179 1587 
L 179 1062 
L 2170 1062 
L 2170 0 
L 2682 0 
L 2682 1062 
L 3296 1062 
L 3296 1542 
L 2682 1542 
z
" transform="scale(0.015625)"/>
        <path id="HelveticaNeue-4d" d="M 512 4570 
L 512 0 
L 1088 0 
L 1088 3802 
L 1101 3802 
L 2528 0 
L 3046 0 
L 4474 3802 
L 4486 3802 
L 4486 0 
L 5062 0 
L 5062 4570 
L 4230 4570 
L 2784 730 
L 1344 4570 
L 512 4570 
z
" transform="scale(0.015625)"/>
       </defs>
       <use xlink:href="#HelveticaNeue-34"/>
       <use xlink:href="#HelveticaNeue-30" transform="translate(55.599991 0)"/>
       <use xlink:href="#HelveticaNeue-30" transform="translate(111.199982 0)"/>
       <use xlink:href="#HelveticaNeue-4d" transform="translate(166.799973 0)"/>
      </g>
     </g>
    </g>
    <g id="ytick_2">
     <g id="line2d_17">
      <path d="M 55.020625 587.54714 
L 1149.420625 587.54714 
" clip-path="url(#p5207a7defa)" style="fill: none; stroke: #ecf0f1; stroke-opacity: 0.3; stroke-width: 0.5; stroke-linecap: square"/>
     </g>
     <g id="line2d_18">
      <g>
       <use xlink:href="#m5b5fe0084a" x="55.020625" y="587.54714" style="fill: #7f8c8d; stroke: #7f8c8d"/>
      </g>
     </g>
     <g id="text_10">
      <!-- 600M -->
      <g style="fill: #7f8c8d" transform="translate(22.133125 591.117452) scale(0.1 -0.1)">
       <use xlink:href="#HelveticaNeue-36"/>
       <use xlink:href="#HelveticaNeue-30" transform="translate(55.599991 0)"/>
       <use xlink:href="#HelveticaNeue-30" transform="translate(111.199982 0)"/>
       <use xlink:href="#HelveticaNeue-4d" transform="translate(166.799973 0)"/>
      </g>
     </g>
    </g>
    <g id="ytick_3">
     <g id="line2d_19">
      <path d="M 55.020625 465.270475 
L 1149.420625 465.270475 
" clip-path="url(#p5207a7defa)" style="fill: none; stroke: #ecf0f1; stroke-opacity: 0.3; stroke-width: 0.5; stroke-linecap: square"/>
     </g>
     <g id="line2d_20">
      <g>
       <use xlink:href="#m5b5fe0084a" x="55.020625" y="465.270475" style="fill: #7f8c8d; stroke: #7f8c8d"/>
      </g>
     </g>
     <g id="text_11">
      <!-- 800M -->
      <g style="fill: #7f8c8d" transform="translate(22.133125 468.840788) scale(0.1 -0.1)">
       <use xlink:href="#HelveticaNeue-38"/>
       <use xlink:href="#HelveticaNeue-30" transform="translate(55.599991 0)"/>
       <use xlink:href="#HelveticaNeue-30" transform="translate(111.199982 0)"/>
       <use xlink:href="#HelveticaNeue-4d" transform="translate(166.799973 0)"/>
      </g>
     </g>
    </g>
    <g id="ytick_4">
     <g id="line2d_21">
      <path d="M 55.020625 342.993811 
L 1149.420625 342.993811 
" clip-path="url(#p5207a7defa)" style="fill: none; stroke: #ecf0f1; stroke-opacity: 0.3; stroke-width: 0.5; stroke-linecap: square"/>
     </g>
     <g id="line2d_22">
      <g>
       <use xlink:href="#m5b5fe0084a" x="55.020625" y="342.993811" style="fill: #7f8c8d; stroke: #7f8c8d"/>
      </g>
     </g>
     <g id="text_12">
      <!-- 1.0B -->
      <g style="fill: #7f8c8d" transform="translate(26.772188 346.564124) scale(0.1 -0.1)">
       <defs>
        <path id="HelveticaNeue-2e" d="M 531 710 
L 531 0 
L 1242 0 
L 1242 710 
L 531 710 
z
" transform="scale(0.015625)"/>
        <path id="HelveticaNeue-42" d="M 1107 2605 
L 1107 4058 
L 2323 4058 
Q 2522 4058 2698 4035 
Q 2874 4013 3008 3936 
Q 3142 3859 3219 3718 
Q 3296 3578 3296 3334 
Q 3296 2970 3069 2787 
Q 2842 2605 2323 2605 
L 1107 2605 
z
M 499 4570 
L 499 0 
L 2707 0 
Q 3046 0 3305 112 
Q 3565 224 3741 406 
Q 3917 589 4006 825 
Q 4096 1062 4096 1312 
Q 4096 1734 3872 2028 
Q 3648 2323 3226 2413 
L 3226 2426 
Q 3552 2554 3728 2819 
Q 3904 3085 3904 3450 
Q 3904 3795 3747 4032 
Q 3590 4269 3366 4403 
Q 3264 4467 3120 4499 
Q 2976 4531 2809 4547 
Q 2643 4563 2473 4566 
Q 2304 4570 2157 4570 
L 499 4570 
z
M 1107 512 
L 1107 2093 
L 2496 2093 
Q 2688 2093 2867 2057 
Q 3046 2022 3184 1936 
Q 3322 1850 3405 1702 
Q 3488 1555 3488 1331 
Q 3488 947 3261 729 
Q 3034 512 2630 512 
L 1107 512 
z
" transform="scale(0.015625)"/>
       </defs>
       <use xlink:href="#HelveticaNeue-31"/>
       <use xlink:href="#HelveticaNeue-2e" transform="translate(55.599991 0)"/>
       <use xlink:href="#HelveticaNeue-30" transform="translate(83.399979 0)"/>
       <use xlink:href="#HelveticaNeue-42" transform="translate(138.999969 0)"/>
      </g>
     </g>
    </g>
    <g id="ytick_5">
     <g id="line2d_23">
      <path d="M 55.020625 220.717147 
L 1149.420625 220.717147 
" clip-path="url(#p5207a7defa)" style="fill: none; stroke: #ecf0f1; stroke-opacity: 0.3; stroke-width: 0.5; stroke-linecap: square"/>
     </g>
     <g id="line2d_24">
      <g>
       <use xlink:href="#m5b5fe0084a" x="55.020625" y="220.717147" style="fill: #7f8c8d; stroke: #7f8c8d"/>
      </g>
     </g>
     <g id="text_13">
      <!-- 1.2B -->
      <g style="fill: #7f8c8d" transform="translate(26.772188 224.287459) scale(0.1 -0.1)">
       <use xlink:href="#HelveticaNeue-31"/>
       <use xlink:href="#HelveticaNeue-2e" transform="translate(55.599991 0)"/>
       <use xlink:href="#HelveticaNeue-32" transform="translate(83.399979 0)"/>
       <use xlink:href="#HelveticaNeue-42" transform="translate(138.999969 0)"/>
      </g>
     </g>
    </g>
    <g id="ytick_6">
     <g id="line2d_25">
      <path d="M 55.020625 98.440482 
L 1149.420625 98.440482 
" clip-path="url(#p5207a7defa)" style="fill: none; stroke: #ecf0f1; stroke-opacity: 0.3; stroke-width: 0.5; stroke-linecap: square"/>
     </g>
     <g id="line2d_26">
      <g>
       <use xlink:href="#m5b5fe0084a" x="55.020625" y="98.440482" style="fill: #7f8c8d; stroke: #7f8c8d"/>
      </g>
     </g>
     <g id="text_14">
      <!-- 1.4B -->
      <g style="fill: #7f8c8d" transform="translate(26.772188 102.010795) scale(0.1 -0.1)">
       <use xlink:href="#HelveticaNeue-31"/>
       <use xlink:href="#HelveticaNeue-2e" transform="translate(55.599991 0)"/>
       <use xlink:href="#HelveticaNeue-34" transform="translate(83.399979 0)"/>
       <use xlink:href="#HelveticaNeue-42" transform="translate(138.999969 0)"/>
      </g>
     </g>
    </g>
    <g id="text_15">
     <!-- Population -->
     <g style="fill: #2c3e50" transform="translate(15.76875 410.274826) rotate(-90) scale(0.12 -0.12)">
      <defs>
       <path id="HelveticaNeue-50" d="M 1107 2381 
L 1107 4058 
L 2298 4058 
Q 2816 4058 3056 3843 
Q 3296 3629 3296 3219 
Q 3296 2810 3056 2592 
Q 2816 2374 2298 2381 
L 1107 2381 
z
M 499 4570 
L 499 0 
L 1107 0 
L 1107 1869 
L 2502 1869 
Q 3194 1862 3549 2220 
Q 3904 2579 3904 3219 
Q 3904 3859 3549 4214 
Q 3194 4570 2502 4570 
L 499 4570 
z
" transform="scale(0.015625)"/>
       <path id="HelveticaNeue-6f" d="M 806 1651 
Q 806 1952 886 2185 
Q 966 2419 1107 2579 
Q 1248 2739 1437 2822 
Q 1626 2906 1837 2906 
Q 2048 2906 2237 2822 
Q 2426 2739 2566 2579 
Q 2707 2419 2787 2185 
Q 2867 1952 2867 1651 
Q 2867 1350 2787 1116 
Q 2707 883 2566 726 
Q 2426 570 2237 486 
Q 2048 403 1837 403 
Q 1626 403 1437 486 
Q 1248 570 1107 726 
Q 966 883 886 1116 
Q 806 1350 806 1651 
z
M 230 1651 
Q 230 1286 332 972 
Q 435 659 640 425 
Q 845 192 1145 61 
Q 1446 -70 1837 -70 
Q 2234 -70 2531 61 
Q 2829 192 3033 425 
Q 3238 659 3340 972 
Q 3443 1286 3443 1651 
Q 3443 2016 3340 2333 
Q 3238 2650 3033 2883 
Q 2829 3117 2531 3251 
Q 2234 3386 1837 3386 
Q 1446 3386 1145 3251 
Q 845 3117 640 2883 
Q 435 2650 332 2333 
Q 230 2016 230 1651 
z
" transform="scale(0.015625)"/>
       <path id="HelveticaNeue-70" d="M 429 3309 
L 429 -1261 
L 973 -1261 
L 973 442 
L 986 442 
Q 1075 294 1206 195 
Q 1338 96 1485 38 
Q 1632 -19 1782 -44 
Q 1933 -70 2054 -70 
Q 2432 -70 2717 64 
Q 3002 198 3190 432 
Q 3379 666 3472 979 
Q 3565 1293 3565 1645 
Q 3565 1997 3469 2310 
Q 3373 2624 3184 2864 
Q 2995 3104 2710 3245 
Q 2426 3386 2042 3386 
Q 1696 3386 1408 3261 
Q 1120 3136 986 2861 
L 973 2861 
L 973 3309 
L 429 3309 
z
M 2989 1683 
Q 2989 1440 2937 1209 
Q 2886 979 2771 800 
Q 2656 621 2467 512 
Q 2278 403 1997 403 
Q 1715 403 1516 508 
Q 1318 614 1193 787 
Q 1069 960 1011 1187 
Q 954 1414 954 1658 
Q 954 1888 1008 2112 
Q 1062 2336 1184 2512 
Q 1306 2688 1498 2797 
Q 1690 2906 1965 2906 
Q 2227 2906 2422 2803 
Q 2618 2701 2742 2528 
Q 2867 2355 2928 2134 
Q 2989 1914 2989 1683 
z
" transform="scale(0.015625)"/>
       <path id="HelveticaNeue-75" d="M 3149 0 
L 3149 3309 
L 2605 3309 
L 2605 1440 
Q 2605 1216 2544 1027 
Q 2483 838 2361 697 
Q 2240 557 2057 480 
Q 1875 403 1626 403 
Q 1312 403 1133 582 
Q 954 762 954 1069 
L 954 3309 
L 410 3309 
L 410 1133 
Q 410 864 464 643 
Q 518 422 652 262 
Q 787 102 1004 16 
Q 1222 -70 1549 -70 
Q 1914 -70 2182 74 
Q 2451 218 2624 525 
L 2637 525 
L 2637 0 
L 3149 0 
z
" transform="scale(0.015625)"/>
       <path id="HelveticaNeue-6c" d="M 442 4570 
L 442 0 
L 986 0 
L 986 4570 
L 442 4570 
z
" transform="scale(0.015625)"/>
       <path id="HelveticaNeue-74" d="M 1165 3309 
L 1165 4301 
L 621 4301 
L 621 3309 
L 58 3309 
L 58 2829 
L 621 2829 
L 621 723 
Q 621 493 665 352 
Q 710 211 803 134 
Q 896 58 1046 29 
Q 1197 0 1408 0 
L 1824 0 
L 1824 480 
L 1574 480 
Q 1446 480 1366 489 
Q 1286 499 1241 531 
Q 1197 563 1181 620 
Q 1165 678 1165 774 
L 1165 2829 
L 1824 2829 
L 1824 3309 
L 1165 3309 
z
" transform="scale(0.015625)"/>
       <path id="HelveticaNeue-69" d="M 986 3904 
L 986 4570 
L 442 4570 
L 442 3904 
L 986 3904 
z
M 442 3309 
L 442 0 
L 986 0 
L 986 3309 
L 442 3309 
z
" transform="scale(0.015625)"/>
       <path id="HelveticaNeue-6e" d="M 410 3309 
L 410 0 
L 954 0 
L 954 1869 
Q 954 2093 1014 2281 
Q 1075 2470 1196 2611 
Q 1318 2752 1500 2829 
Q 1683 2906 1933 2906 
Q 2246 2906 2425 2726 
Q 2605 2547 2605 2240 
L 2605 0 
L 3149 0 
L 3149 2176 
Q 3149 2445 3094 2665 
Q 3040 2886 2905 3046 
Q 2771 3206 2553 3296 
Q 2336 3386 2010 3386 
Q 1274 3386 934 2784 
L 922 2784 
L 922 3309 
L 410 3309 
z
" transform="scale(0.015625)"/>
      </defs>
      <use xlink:href="#HelveticaNeue-50"/>
      <use xlink:href="#HelveticaNeue-6f" transform="translate(64.799988 0)"/>
      <use xlink:href="#HelveticaNeue-70" transform="translate(122.199982 0)"/>
      <use xlink:href="#HelveticaNeue-75" transform="translate(181.499969 0)"/>
      <use xlink:href="#HelveticaNeue-6c" transform="translate(237.09996 0)"/>
      <use xlink:href="#HelveticaNeue-61" transform="translate(259.299957 0)"/>
      <use xlink:href="#HelveticaNeue-74" transform="translate(312.999954 0)"/>
      <use xlink:href="#HelveticaNeue-69" transform="translate(344.499939 0)"/>
      <use xlink:href="#HelveticaNeue-6f" transform="translate(366.699936 0)"/>
      <use xlink:href="#HelveticaNeue-6e" transform="translate(424.09993 0)"/>
     </g>
    </g>
   </g>
   <g id="line2d_27">
    <path d="M 104.76608 546.54166 
L 120.558287 550.662384 
L 136.350495 547.336459 
L 152.142703 537.208894 
L 167.934911 527.414533 
L 183.727119 517.124952 
L 199.519326 504.765838 
L 215.311534 493.057847 
L 231.103742 480.854636 
L 246.89595 467.700724 
L 262.688157 454.07299 
L 278.480365 440.139564 
L 294.272573 427.346368 
L 310.064781 415.173726 
L 325.856989 403.918159 
L 341.649196 394.108514 
L 357.441404 385.371846 
L 373.233612 377.564481 
L 389.02582 369.793799 
L 404.818028 361.943637 
L 420.610235 354.466419 
L 436.402443 346.73242 
L 452.194651 337.717573 
L 467.986859 328.742466 
L 483.779067 320.47962 
L 499.571274 311.788806 
L 515.363482 302.159519 
L 531.15569 291.616214 
L 546.947898 280.858924 
L 562.740106 270.45318 
L 578.532313 260.343957 
L 594.324521 250.809434 
L 610.116729 242.133904 
L 625.908937 233.898571 
L 641.701144 225.709091 
L 657.493352 217.748881 
L 673.28556 209.987369 
L 689.077768 202.329793 
L 704.869976 195.078787 
L 720.662183 188.475847 
L 736.454391 182.417038 
L 752.246599 176.789255 
L 768.038807 171.561928 
L 783.831015 166.670861 
L 799.623222 161.978494 
L 815.41543 157.304469 
L 831.207638 152.84137 
L 846.999846 148.644224 
L 862.792054 144.505159 
L 878.584261 140.466972 
L 894.376469 136.526606 
L 910.168677 132.045167 
L 925.960885 126.447952 
L 941.753093 120.914933 
L 957.5453 115.644809 
L 973.337508 110.753742 
L 989.129716 105.905473 
L 1004.921924 100.754568 
L 1020.714131 96.753064 
L 1036.506339 93.705318 
L 1052.298547 91.654127 
L 1068.090755 90.883784 
L 1083.882963 90.99689 
L 1099.67517 91.892567 
" clip-path="url(#p5207a7defa)" style="fill: none; stroke: #d62728; stroke-opacity: 0.9; stroke-width: 3; stroke-linecap: square"/>
   </g>
   <g id="line2d_28">
    <path d="M 104.76608 687.819912 
L 120.558287 681.354905 
L 136.350495 674.801878 
L 152.142703 668.165016 
L 167.934911 661.384149 
L 183.727119 654.713622 
L 199.519326 648.232897 
L 215.311534 641.58953 
L 231.103742 634.796745 
L 246.89595 627.971472 
L 262.688157 620.644823 
L 278.480365 613.16631 
L 294.272573 605.593866 
L 310.064781 597.655997 
L 325.856989 589.355984 
L 341.649196 580.632679 
L 357.441404 571.735616 
L 373.233612 562.602026 
L 389.02582 553.47583 
L 404.818028 544.043703 
L 420.610235 534.140346 
L 436.402443 524.148982 
L 452.194651 513.989489 
L 467.986859 503.559774 
L 483.779067 492.858873 
L 499.571274 481.993159 
L 515.363482 470.962468 
L 531.15569 459.810046 
L 546.947898 448.553427 
L 562.740106 437.122675 
L 578.532313 425.547543 
L 594.324521 413.95854 
L 610.116729 402.32424 
L 625.908937 390.60933 
L 641.701144 378.965303 
L 657.493352 367.265091 
L 673.28556 355.418063 
L 689.077768 343.523414 
L 704.869976 331.582292 
L 720.662183 319.62318 
L 736.454391 307.580818 
L 752.246599 295.367921 
L 768.038807 283.322566 
L 783.831015 271.582401 
L 799.623222 259.850868 
L 815.41543 248.427287 
L 831.207638 237.298541 
L 846.999846 226.417672 
L 862.792054 215.868288 
L 878.584261 205.111738 
L 894.376469 194.133244 
L 910.168677 183.285231 
L 925.960885 172.616868 
L 941.753093 162.128582 
L 957.5453 152.072745 
L 973.337508 142.445104 
L 989.129716 132.712005 
L 1004.921924 123.105275 
L 1020.714131 113.933508 
L 1036.506339 105.147167 
L 1052.298547 96.840067 
L 1068.090755 89.756457 
L 1083.882963 82.897154 
L 1099.67517 75.165366 
" clip-path="url(#p5207a7defa)" style="fill: none; stroke: #ff7f0e; stroke-opacity: 0.9; stroke-width: 3; stroke-linecap: square"/>
   </g>
   <g id="line2d_29">
    <path d="M 1068.090755 718.452639 
L 1068.090755 44.532639 
" clip-path="url(#p5207a7defa)" style="fill: none; stroke-dasharray: 7.4,3.2; stroke-dashoffset: 0; stroke: #2c3e50; stroke-opacity: 0.7; stroke-width: 2"/>
   </g>
   <g id="patch_3">
    <path d="M 55.020625 718.452639 
L 55.020625 44.532639 
" style="fill: none; stroke: #bdc3c7; stroke-linejoin: miter; stroke-linecap: square"/>
   </g>
   <g id="patch_4">
    <path d="M 55.020625 718.452639 
L 1149.420625 718.452639 
" style="fill: none; stroke: #bdc3c7; stroke-linejoin: miter; stroke-linecap: square"/>
   </g>
   <g id="patch_5">
    <path d="M 1125.285277 38.570925 
Q 1097.433318 63.496692 1071.247603 86.931275 
" style="fill: none; stroke: #2c3e50; stroke-width: 2; stroke-linecap: round"/>
    <path d="M 1076.424912 85.518661 
L 1071.247603 86.931275 
L 1073.223897 81.94186 
" style="fill: none; stroke: #2c3e50; stroke-width: 2; stroke-linecap: round"/>
   </g>
   <g id="text_16">
    <g id="patch_6">
     <path d="M 1087.820544 36.9825 
L 1206.283044 36.9825 
Q 1212.283044 36.9825 1212.283044 30.9825 
L 1212.283044 7.2 
Q 1212.283044 1.2 1206.283044 1.2 
L 1087.820544 1.2 
Q 1081.820544 1.2 1081.820544 7.2 
L 1081.820544 30.9825 
Q 1081.820544 36.9825 1087.820544 36.9825 
z
" style="fill: #ffffff; opacity: 0.9; stroke: #2c3e50; stroke-width: 0.5; stroke-linejoin: miter"/>
    </g>
    <!-- India surpasses China -->
    <g transform="translate(1087.820544 15.97125) scale(0.12 -0.12)">
     <defs>
      <path id="HelveticaNeue-49" d="M 525 4570 
L 525 0 
L 1133 0 
L 1133 4570 
L 525 4570 
z
" transform="scale(0.015625)"/>
      <path id="HelveticaNeue-64" d="M 806 1626 
Q 806 1869 857 2099 
Q 909 2330 1024 2509 
Q 1139 2688 1331 2797 
Q 1523 2906 1798 2906 
Q 2080 2906 2278 2800 
Q 2477 2694 2601 2521 
Q 2726 2349 2784 2121 
Q 2842 1894 2842 1651 
Q 2842 1421 2787 1197 
Q 2733 973 2611 797 
Q 2490 621 2298 512 
Q 2106 403 1830 403 
Q 1568 403 1373 505 
Q 1178 608 1053 781 
Q 928 954 867 1174 
Q 806 1395 806 1626 
z
M 3366 0 
L 3366 4570 
L 2822 4570 
L 2822 2867 
L 2810 2867 
Q 2720 3014 2589 3113 
Q 2458 3213 2310 3273 
Q 2163 3334 2016 3360 
Q 1869 3386 1741 3386 
Q 1363 3386 1078 3248 
Q 794 3110 605 2876 
Q 416 2643 323 2329 
Q 230 2016 230 1664 
Q 230 1312 326 998 
Q 422 685 611 448 
Q 800 211 1085 70 
Q 1370 -70 1754 -70 
Q 2099 -70 2387 51 
Q 2675 173 2810 448 
L 2822 448 
L 2822 0 
L 3366 0 
z
" transform="scale(0.015625)"/>
      <path id="HelveticaNeue-20" transform="scale(0.015625)"/>
      <path id="HelveticaNeue-73" d="M 742 1043 
L 198 1043 
Q 211 736 326 521 
Q 442 307 634 176 
Q 826 45 1075 -12 
Q 1325 -70 1600 -70 
Q 1850 -70 2102 -22 
Q 2355 26 2556 147 
Q 2758 269 2883 467 
Q 3008 666 3008 966 
Q 3008 1203 2915 1363 
Q 2822 1523 2672 1628 
Q 2522 1734 2326 1798 
Q 2131 1862 1926 1907 
Q 1734 1952 1542 1993 
Q 1350 2035 1196 2096 
Q 1043 2157 944 2249 
Q 845 2342 845 2483 
Q 845 2611 909 2691 
Q 973 2771 1075 2819 
Q 1178 2867 1302 2886 
Q 1427 2906 1549 2906 
Q 1683 2906 1814 2877 
Q 1946 2848 2054 2784 
Q 2163 2720 2233 2614 
Q 2304 2509 2317 2349 
L 2861 2349 
Q 2842 2650 2733 2851 
Q 2624 3053 2441 3171 
Q 2259 3290 2022 3338 
Q 1786 3386 1504 3386 
Q 1286 3386 1065 3331 
Q 845 3277 669 3165 
Q 493 3053 381 2873 
Q 269 2694 269 2445 
Q 269 2125 429 1945 
Q 589 1766 829 1667 
Q 1069 1568 1350 1513 
Q 1632 1459 1872 1392 
Q 2112 1325 2272 1216 
Q 2432 1107 2432 896 
Q 2432 742 2355 643 
Q 2278 544 2160 493 
Q 2042 442 1901 422 
Q 1760 403 1632 403 
Q 1466 403 1309 435 
Q 1152 467 1027 540 
Q 902 614 825 739 
Q 749 864 742 1043 
z
" transform="scale(0.015625)"/>
      <path id="HelveticaNeue-43" d="M 3712 3194 
L 4320 3194 
Q 4269 3558 4102 3836 
Q 3936 4115 3686 4300 
Q 3437 4486 3117 4582 
Q 2797 4678 2438 4678 
Q 1914 4678 1507 4489 
Q 1101 4301 829 3974 
Q 557 3648 416 3209 
Q 275 2771 275 2272 
Q 275 1773 406 1337 
Q 538 902 800 582 
Q 1062 262 1459 80 
Q 1856 -102 2387 -102 
Q 3264 -102 3769 378 
Q 4275 858 4365 1722 
L 3757 1722 
Q 3738 1440 3642 1197 
Q 3546 954 3376 778 
Q 3206 602 2972 502 
Q 2739 403 2438 403 
Q 2029 403 1734 556 
Q 1440 710 1251 969 
Q 1062 1229 972 1577 
Q 883 1926 883 2317 
Q 883 2675 972 3008 
Q 1062 3341 1251 3600 
Q 1440 3859 1731 4012 
Q 2022 4166 2432 4166 
Q 2912 4166 3261 3923 
Q 3610 3680 3712 3194 
z
" transform="scale(0.015625)"/>
      <path id="HelveticaNeue-68" d="M 410 4570 
L 410 0 
L 954 0 
L 954 1869 
Q 954 2093 1014 2281 
Q 1075 2470 1196 2611 
Q 1318 2752 1500 2829 
Q 1683 2906 1933 2906 
Q 2246 2906 2425 2726 
Q 2605 2547 2605 2240 
L 2605 0 
L 3149 0 
L 3149 2176 
Q 3149 2445 3094 2665 
Q 3040 2886 2905 3046 
Q 2771 3206 2553 3296 
Q 2336 3386 2010 3386 
Q 1862 3386 1705 3354 
Q 1549 3322 1405 3254 
Q 1261 3187 1145 3081 
Q 1030 2976 966 2822 
L 954 2822 
L 954 4570 
L 410 4570 
z
" transform="scale(0.015625)"/>
     </defs>
     <use xlink:href="#HelveticaNeue-49"/>
     <use xlink:href="#HelveticaNeue-6e" transform="translate(25.899994 0)"/>
     <use xlink:href="#HelveticaNeue-64" transform="translate(81.499985 0)"/>
     <use xlink:href="#HelveticaNeue-69" transform="translate(140.799973 0)"/>
     <use xlink:href="#HelveticaNeue-61" transform="translate(162.999969 0)"/>
     <use xlink:href="#HelveticaNeue-20" transform="translate(216.699966 0)"/>
     <use xlink:href="#HelveticaNeue-73" transform="translate(244.499954 0)"/>
     <use xlink:href="#HelveticaNeue-75" transform="translate(294.499939 0)"/>
     <use xlink:href="#HelveticaNeue-72" transform="translate(350.09993 0)"/>
     <use xlink:href="#HelveticaNeue-70" transform="translate(383.399918 0)"/>
     <use xlink:href="#HelveticaNeue-61" transform="translate(442.699905 0)"/>
     <use xlink:href="#HelveticaNeue-73" transform="translate(496.399902 0)"/>
     <use xlink:href="#HelveticaNeue-73" transform="translate(546.399887 0)"/>
     <use xlink:href="#HelveticaNeue-65" transform="translate(596.399872 0)"/>
     <use xlink:href="#HelveticaNeue-73" transform="translate(650.099869 0)"/>
     <use xlink:href="#HelveticaNeue-20" transform="translate(700.099854 0)"/>
     <use xlink:href="#HelveticaNeue-43" transform="translate(727.899841 0)"/>
     <use xlink:href="#HelveticaNeue-68" transform="translate(800.099823 0)"/>
     <use xlink:href="#HelveticaNeue-69" transform="translate(855.699814 0)"/>
     <use xlink:href="#HelveticaNeue-6e" transform="translate(877.899811 0)"/>
     <use xlink:href="#HelveticaNeue-61" transform="translate(933.499802 0)"/>
    </g>
    <!-- 2021 -->
    <g transform="translate(1133.709294 28.618125) scale(0.12 -0.12)">
     <use xlink:href="#HelveticaNeue-32"/>
     <use xlink:href="#HelveticaNeue-30" transform="translate(55.599991 0)"/>
     <use xlink:href="#HelveticaNeue-32" transform="translate(111.199982 0)"/>
     <use xlink:href="#HelveticaNeue-31" transform="translate(166.799973 0)"/>
    </g>
   </g>
   <g id="text_17">
    <!-- Historic demographic transition (1960-2023) -->
    <g style="fill: #34495e" transform="translate(464.650937 28.127364) scale(0.14 -0.14)">
     <defs>
      <path id="HelveticaNeue-48" d="M 499 4570 
L 499 0 
L 1107 0 
L 1107 2093 
L 3514 2093 
L 3514 0 
L 4122 0 
L 4122 4570 
L 3514 4570 
L 3514 2605 
L 1107 2605 
L 1107 4570 
L 499 4570 
z
" transform="scale(0.015625)"/>
      <path id="HelveticaNeue-63" d="M 2656 2246 
L 3219 2246 
Q 3187 2541 3065 2755 
Q 2944 2970 2755 3110 
Q 2566 3251 2320 3318 
Q 2074 3386 1792 3386 
Q 1402 3386 1107 3248 
Q 813 3110 617 2870 
Q 422 2630 326 2307 
Q 230 1984 230 1613 
Q 230 1242 329 931 
Q 429 621 624 397 
Q 819 173 1110 51 
Q 1402 -70 1779 -70 
Q 2413 -70 2781 262 
Q 3149 595 3238 1210 
L 2682 1210 
Q 2630 826 2403 614 
Q 2176 403 1773 403 
Q 1517 403 1331 505 
Q 1146 608 1030 777 
Q 915 947 860 1164 
Q 806 1382 806 1613 
Q 806 1862 857 2096 
Q 909 2330 1027 2509 
Q 1146 2688 1344 2797 
Q 1542 2906 1837 2906 
Q 2182 2906 2387 2733 
Q 2592 2560 2656 2246 
z
" transform="scale(0.015625)"/>
      <path id="HelveticaNeue-6d" d="M 410 3309 
L 410 0 
L 954 0 
L 954 2061 
Q 954 2157 1002 2301 
Q 1050 2445 1155 2579 
Q 1261 2714 1430 2810 
Q 1600 2906 1837 2906 
Q 2022 2906 2140 2851 
Q 2259 2797 2329 2697 
Q 2400 2598 2429 2464 
Q 2458 2330 2458 2170 
L 2458 0 
L 3002 0 
L 3002 2061 
Q 3002 2445 3232 2675 
Q 3462 2906 3866 2906 
Q 4064 2906 4189 2848 
Q 4314 2790 4384 2691 
Q 4454 2592 4480 2457 
Q 4506 2323 4506 2170 
L 4506 0 
L 5050 0 
L 5050 2426 
Q 5050 2682 4970 2864 
Q 4890 3046 4746 3161 
Q 4602 3277 4400 3331 
Q 4198 3386 3949 3386 
Q 3622 3386 3350 3238 
Q 3078 3091 2912 2822 
Q 2810 3130 2560 3258 
Q 2310 3386 2003 3386 
Q 1306 3386 934 2822 
L 922 2822 
L 922 3309 
L 410 3309 
z
" transform="scale(0.015625)"/>
      <path id="HelveticaNeue-67" d="M 3264 282 
L 3264 3309 
L 2752 3309 
L 2752 2835 
L 2746 2835 
Q 2598 3110 2336 3248 
Q 2074 3386 1760 3386 
Q 1331 3386 1036 3222 
Q 742 3059 563 2806 
Q 384 2554 307 2243 
Q 230 1933 230 1638 
Q 230 1299 323 995 
Q 416 691 601 464 
Q 787 237 1062 102 
Q 1338 -32 1709 -32 
Q 2029 -32 2313 112 
Q 2598 256 2739 563 
L 2752 563 
L 2752 346 
Q 2752 70 2697 -160 
Q 2643 -390 2521 -553 
Q 2400 -717 2214 -809 
Q 2029 -902 1760 -902 
Q 1626 -902 1478 -873 
Q 1331 -845 1206 -781 
Q 1082 -717 995 -614 
Q 909 -512 902 -365 
L 358 -365 
Q 371 -634 499 -819 
Q 627 -1005 822 -1120 
Q 1018 -1235 1258 -1286 
Q 1498 -1338 1728 -1338 
Q 2522 -1338 2893 -934 
Q 3264 -531 3264 282 
z
M 1741 442 
Q 1472 442 1293 554 
Q 1114 666 1005 848 
Q 896 1030 851 1254 
Q 806 1478 806 1702 
Q 806 1939 860 2156 
Q 915 2374 1033 2540 
Q 1152 2707 1337 2806 
Q 1523 2906 1786 2906 
Q 2042 2906 2221 2803 
Q 2400 2701 2512 2531 
Q 2624 2362 2675 2150 
Q 2726 1939 2726 1722 
Q 2726 1491 2672 1260 
Q 2618 1030 2502 848 
Q 2387 666 2198 554 
Q 2010 442 1741 442 
z
" transform="scale(0.015625)"/>
      <path id="HelveticaNeue-28" d="M 1306 -1261 
L 1722 -1261 
Q 1267 -525 1072 198 
Q 877 922 877 1728 
Q 877 2515 1069 3232 
Q 1261 3949 1722 4678 
L 1306 4678 
Q 806 4019 553 3251 
Q 301 2483 301 1728 
Q 301 1306 371 922 
Q 442 538 573 173 
Q 704 -192 889 -547 
Q 1075 -902 1306 -1261 
z
" transform="scale(0.015625)"/>
      <path id="HelveticaNeue-2d" d="M 320 2035 
L 320 1523 
L 2170 1523 
L 2170 2035 
L 320 2035 
z
" transform="scale(0.015625)"/>
      <path id="HelveticaNeue-33" d="M 1395 2592 
L 1395 2131 
Q 1549 2150 1722 2150 
Q 1926 2150 2102 2096 
Q 2278 2042 2406 1930 
Q 2534 1818 2611 1654 
Q 2688 1491 2688 1280 
Q 2688 1075 2608 912 
Q 2528 749 2393 637 
Q 2259 525 2080 464 
Q 1901 403 1702 403 
Q 1235 403 992 681 
Q 749 960 736 1402 
L 192 1402 
Q 186 1050 291 774 
Q 397 499 595 310 
Q 794 122 1075 26 
Q 1357 -70 1702 -70 
Q 2022 -70 2307 16 
Q 2592 102 2803 275 
Q 3014 448 3139 707 
Q 3264 966 3264 1306 
Q 3264 1715 3062 2016 
Q 2861 2317 2445 2406 
L 2445 2419 
Q 2714 2541 2893 2777 
Q 3072 3014 3072 3322 
Q 3072 3635 2966 3865 
Q 2861 4096 2675 4243 
Q 2490 4390 2237 4464 
Q 1984 4538 1690 4538 
Q 1350 4538 1091 4429 
Q 832 4320 659 4128 
Q 486 3936 393 3667 
Q 301 3398 288 3072 
L 832 3072 
Q 832 3270 883 3449 
Q 934 3629 1040 3763 
Q 1146 3898 1309 3978 
Q 1472 4058 1690 4058 
Q 2035 4058 2265 3875 
Q 2496 3693 2496 3328 
Q 2496 3149 2425 3008 
Q 2355 2867 2236 2774 
Q 2118 2682 1961 2634 
Q 1805 2586 1632 2586 
L 1517 2586 
Q 1485 2586 1453 2586 
Q 1427 2586 1395 2592 
z
" transform="scale(0.015625)"/>
      <path id="HelveticaNeue-29" d="M -58 -1261 
L 352 -1261 
Q 851 -602 1104 163 
Q 1357 928 1357 1683 
Q 1357 2106 1286 2490 
Q 1216 2874 1085 3242 
Q 954 3610 768 3965 
Q 582 4320 352 4678 
L -58 4678 
Q 390 3942 585 3216 
Q 781 2490 781 1683 
Q 781 902 589 182 
Q 397 -538 -58 -1261 
z
" transform="scale(0.015625)"/>
     </defs>
     <use xlink:href="#HelveticaNeue-48"/>
     <use xlink:href="#HelveticaNeue-69" transform="translate(72.199982 0)"/>
     <use xlink:href="#HelveticaNeue-73" transform="translate(94.399979 0)"/>
     <use xlink:href="#HelveticaNeue-74" transform="translate(144.399963 0)"/>
     <use xlink:href="#HelveticaNeue-6f" transform="translate(175.899948 0)"/>
     <use xlink:href="#HelveticaNeue-72" transform="translate(233.299942 0)"/>
     <use xlink:href="#HelveticaNeue-69" transform="translate(266.59993 0)"/>
     <use xlink:href="#HelveticaNeue-63" transform="translate(288.799927 0)"/>
     <use xlink:href="#HelveticaNeue-20" transform="translate(342.499924 0)"/>
     <use xlink:href="#HelveticaNeue-64" transform="translate(370.299911 0)"/>
     <use xlink:href="#HelveticaNeue-65" transform="translate(429.599899 0)"/>
     <use xlink:href="#HelveticaNeue-6d" transform="translate(483.299896 0)"/>
     <use xlink:href="#HelveticaNeue-6f" transform="translate(568.599884 0)"/>
     <use xlink:href="#HelveticaNeue-67" transform="translate(625.999878 0)"/>
     <use xlink:href="#HelveticaNeue-72" transform="translate(683.399872 0)"/>
     <use xlink:href="#HelveticaNeue-61" transform="translate(716.69986 0)"/>
     <use xlink:href="#HelveticaNeue-70" transform="translate(770.399857 0)"/>
     <use xlink:href="#HelveticaNeue-68" transform="translate(829.699844 0)"/>
     <use xlink:href="#HelveticaNeue-69" transform="translate(885.299835 0)"/>
     <use xlink:href="#HelveticaNeue-63" transform="translate(907.499832 0)"/>
     <use xlink:href="#HelveticaNeue-20" transform="translate(961.199829 0)"/>
     <use xlink:href="#HelveticaNeue-74" transform="translate(988.999817 0)"/>
     <use xlink:href="#HelveticaNeue-72" transform="translate(1020.499802 0)"/>
     <use xlink:href="#HelveticaNeue-61" transform="translate(1053.799789 0)"/>
     <use xlink:href="#HelveticaNeue-6e" transform="translate(1107.499786 0)"/>
     <use xlink:href="#HelveticaNeue-73" transform="translate(1163.099777 0)"/>
     <use xlink:href="#HelveticaNeue-69" transform="translate(1213.099762 0)"/>
     <use xlink:href="#HelveticaNeue-74" transform="translate(1235.299759 0)"/>
     <use xlink:href="#HelveticaNeue-69" transform="translate(1266.799744 0)"/>
     <use xlink:href="#HelveticaNeue-6f" transform="translate(1288.999741 0)"/>
     <use xlink:href="#HelveticaNeue-6e" transform="translate(1346.399734 0)"/>
     <use xlink:href="#HelveticaNeue-20" transform="translate(1401.999725 0)"/>
     <use xlink:href="#HelveticaNeue-28" transform="translate(1429.799713 0)"/>
     <use xlink:href="#HelveticaNeue-31" transform="translate(1455.699707 0)"/>
     <use xlink:href="#HelveticaNeue-39" transform="translate(1511.299698 0)"/>
     <use xlink:href="#HelveticaNeue-36" transform="translate(1566.899689 0)"/>
     <use xlink:href="#HelveticaNeue-30" transform="translate(1622.49968 0)"/>
     <use xlink:href="#HelveticaNeue-2d" transform="translate(1678.09967 0)"/>
     <use xlink:href="#HelveticaNeue-32" transform="translate(1716.999664 0)"/>
     <use xlink:href="#HelveticaNeue-30" transform="translate(1772.599655 0)"/>
     <use xlink:href="#HelveticaNeue-32" transform="translate(1828.199646 0)"/>
     <use xlink:href="#HelveticaNeue-33" transform="translate(1883.799637 0)"/>
     <use xlink:href="#HelveticaNeue-29" transform="translate(1939.399628 0)"/>
    </g>
   </g>
   <g id="text_18">
    <g id="patch_7">
     <path d="M 76.908625 104.007914 
L 217.688312 104.007914 
Q 222.688312 104.007914 222.688312 99.007914 
L 222.688312 58.011039 
Q 222.688312 53.011039 217.688312 53.011039 
L 76.908625 53.011039 
Q 71.908625 53.011039 71.908625 58.011039 
L 71.908625 99.007914 
Q 71.908625 104.007914 76.908625 104.007914 
z
" style="fill: #ffffff; opacity: 0.9; stroke: #bdc3c7; stroke-width: 0.5; stroke-linejoin: miter"/>
    </g>
    <!-- Current Gap (2023): -->
    <g transform="translate(76.908625 65.320414) scale(0.1 -0.1)">
     <defs>
      <path id="HelveticaNeue-47" d="M 3917 570 
L 4077 0 
L 4461 0 
L 4461 2406 
L 2458 2406 
L 2458 1894 
L 3917 1894 
Q 3930 1581 3834 1309 
Q 3738 1037 3549 835 
Q 3360 634 3085 518 
Q 2810 403 2451 403 
Q 2067 403 1776 553 
Q 1485 704 1286 957 
Q 1088 1210 985 1539 
Q 883 1869 883 2227 
Q 883 2592 972 2941 
Q 1062 3290 1251 3562 
Q 1440 3834 1737 4000 
Q 2035 4166 2451 4166 
Q 2707 4166 2934 4105 
Q 3162 4045 3341 3923 
Q 3520 3802 3641 3613 
Q 3763 3424 3808 3162 
L 4416 3162 
Q 4352 3565 4176 3849 
Q 4000 4134 3741 4320 
Q 3482 4506 3152 4592 
Q 2822 4678 2451 4678 
Q 1907 4678 1500 4476 
Q 1094 4275 822 3936 
Q 550 3597 412 3145 
Q 275 2694 275 2195 
Q 275 1747 422 1331 
Q 570 915 851 595 
Q 1133 275 1536 86 
Q 1939 -102 2451 -102 
Q 2854 -102 3251 54 
Q 3648 211 3917 570 
z
" transform="scale(0.015625)"/>
      <path id="HelveticaNeue-3a" d="M 1242 2598 
L 1242 3309 
L 531 3309 
L 531 2598 
L 1242 2598 
z
M 531 710 
L 531 0 
L 1242 0 
L 1242 710 
L 531 710 
z
" transform="scale(0.015625)"/>
     </defs>
     <use xlink:href="#HelveticaNeue-43"/>
     <use xlink:href="#HelveticaNeue-75" transform="translate(72.199982 0)"/>
     <use xlink:href="#HelveticaNeue-72" transform="translate(127.799973 0)"/>
     <use xlink:href="#HelveticaNeue-72" transform="translate(161.09996 0)"/>
     <use xlink:href="#HelveticaNeue-65" transform="translate(192.649948 0)"/>
     <use xlink:href="#HelveticaNeue-6e" transform="translate(246.349945 0)"/>
     <use xlink:href="#HelveticaNeue-74" transform="translate(301.949936 0)"/>
     <use xlink:href="#HelveticaNeue-20" transform="translate(333.449921 0)"/>
     <use xlink:href="#HelveticaNeue-47" transform="translate(361.249908 0)"/>
     <use xlink:href="#HelveticaNeue-61" transform="translate(437.149902 0)"/>
     <use xlink:href="#HelveticaNeue-70" transform="translate(490.849899 0)"/>
     <use xlink:href="#HelveticaNeue-20" transform="translate(550.149887 0)"/>
     <use xlink:href="#HelveticaNeue-28" transform="translate(577.949875 0)"/>
     <use xlink:href="#HelveticaNeue-32" transform="translate(603.849869 0)"/>
     <use xlink:href="#HelveticaNeue-30" transform="translate(659.44986 0)"/>
     <use xlink:href="#HelveticaNeue-32" transform="translate(715.04985 0)"/>
     <use xlink:href="#HelveticaNeue-33" transform="translate(770.649841 0)"/>
     <use xlink:href="#HelveticaNeue-29" transform="translate(826.249832 0)"/>
     <use xlink:href="#HelveticaNeue-3a" transform="translate(852.149826 0)"/>
    </g>
    <!-- India leads by 27 million people -->
    <g transform="translate(76.908625 75.859476) scale(0.1 -0.1)">
     <defs>
      <path id="HelveticaNeue-62" d="M 429 4570 
L 429 0 
L 973 0 
L 973 442 
L 986 442 
Q 1075 294 1206 195 
Q 1338 96 1485 38 
Q 1632 -19 1782 -44 
Q 1933 -70 2054 -70 
Q 2432 -70 2717 64 
Q 3002 198 3190 432 
Q 3379 666 3472 979 
Q 3565 1293 3565 1645 
Q 3565 1997 3469 2310 
Q 3373 2624 3184 2864 
Q 2995 3104 2710 3245 
Q 2426 3386 2042 3386 
Q 1696 3386 1408 3261 
Q 1120 3136 986 2861 
L 973 2861 
L 973 4570 
L 429 4570 
z
M 2989 1683 
Q 2989 1440 2937 1209 
Q 2886 979 2771 800 
Q 2656 621 2467 512 
Q 2278 403 1997 403 
Q 1715 403 1516 508 
Q 1318 614 1193 787 
Q 1069 960 1011 1187 
Q 954 1414 954 1658 
Q 954 1888 1008 2112 
Q 1062 2336 1184 2512 
Q 1306 2688 1498 2797 
Q 1690 2906 1965 2906 
Q 2227 2906 2422 2803 
Q 2618 2701 2742 2528 
Q 2867 2355 2928 2134 
Q 2989 1914 2989 1683 
z
" transform="scale(0.015625)"/>
      <path id="HelveticaNeue-79" d="M 1709 -442 
Q 1613 -685 1520 -851 
Q 1427 -1018 1315 -1123 
Q 1203 -1229 1065 -1277 
Q 928 -1325 749 -1325 
Q 653 -1325 557 -1312 
Q 461 -1299 371 -1267 
L 371 -768 
Q 442 -800 534 -822 
Q 627 -845 691 -845 
Q 858 -845 970 -765 
Q 1082 -685 1139 -538 
L 1363 19 
L 51 3309 
L 666 3309 
L 1632 602 
L 1645 602 
L 2573 3309 
L 3149 3309 
L 1709 -442 
z
" transform="scale(0.015625)"/>
     </defs>
     <use xlink:href="#HelveticaNeue-49"/>
     <use xlink:href="#HelveticaNeue-6e" transform="translate(25.899994 0)"/>
     <use xlink:href="#HelveticaNeue-64" transform="translate(81.499985 0)"/>
     <use xlink:href="#HelveticaNeue-69" transform="translate(140.799973 0)"/>
     <use xlink:href="#HelveticaNeue-61" transform="translate(162.999969 0)"/>
     <use xlink:href="#HelveticaNeue-20" transform="translate(216.699966 0)"/>
     <use xlink:href="#HelveticaNeue-6c" transform="translate(244.499954 0)"/>
     <use xlink:href="#HelveticaNeue-65" transform="translate(266.699951 0)"/>
     <use xlink:href="#HelveticaNeue-61" transform="translate(320.399948 0)"/>
     <use xlink:href="#HelveticaNeue-64" transform="translate(374.099945 0)"/>
     <use xlink:href="#HelveticaNeue-73" transform="translate(433.399933 0)"/>
     <use xlink:href="#HelveticaNeue-20" transform="translate(483.399918 0)"/>
     <use xlink:href="#HelveticaNeue-62" transform="translate(511.199905 0)"/>
     <use xlink:href="#HelveticaNeue-79" transform="translate(570.499893 0)"/>
     <use xlink:href="#HelveticaNeue-20" transform="translate(620.499878 0)"/>
     <use xlink:href="#HelveticaNeue-32" transform="translate(648.299866 0)"/>
     <use xlink:href="#HelveticaNeue-37" transform="translate(703.899857 0)"/>
     <use xlink:href="#HelveticaNeue-20" transform="translate(759.499847 0)"/>
     <use xlink:href="#HelveticaNeue-6d" transform="translate(787.299835 0)"/>
     <use xlink:href="#HelveticaNeue-69" transform="translate(872.599823 0)"/>
     <use xlink:href="#HelveticaNeue-6c" transform="translate(894.79982 0)"/>
     <use xlink:href="#HelveticaNeue-6c" transform="translate(916.999817 0)"/>
     <use xlink:href="#HelveticaNeue-69" transform="translate(939.199814 0)"/>
     <use xlink:href="#HelveticaNeue-6f" transform="translate(961.399811 0)"/>
     <use xlink:href="#HelveticaNeue-6e" transform="translate(1018.799805 0)"/>
     <use xlink:href="#HelveticaNeue-20" transform="translate(1074.399796 0)"/>
     <use xlink:href="#HelveticaNeue-70" transform="translate(1102.199783 0)"/>
     <use xlink:href="#HelveticaNeue-65" transform="translate(1161.499771 0)"/>
     <use xlink:href="#HelveticaNeue-6f" transform="translate(1215.199768 0)"/>
     <use xlink:href="#HelveticaNeue-70" transform="translate(1272.599762 0)"/>
     <use xlink:href="#HelveticaNeue-6c" transform="translate(1331.89975 0)"/>
     <use xlink:href="#HelveticaNeue-65" transform="translate(1354.099747 0)"/>
    </g>
    <!-- India: 1.44B -->
    <g transform="translate(76.908625 86.498539) scale(0.1 -0.1)">
     <use xlink:href="#HelveticaNeue-49"/>
     <use xlink:href="#HelveticaNeue-6e" transform="translate(25.899994 0)"/>
     <use xlink:href="#HelveticaNeue-64" transform="translate(81.499985 0)"/>
     <use xlink:href="#HelveticaNeue-69" transform="translate(140.799973 0)"/>
     <use xlink:href="#HelveticaNeue-61" transform="translate(162.999969 0)"/>
     <use xlink:href="#HelveticaNeue-3a" transform="translate(216.699966 0)"/>
     <use xlink:href="#HelveticaNeue-20" transform="translate(244.499954 0)"/>
     <use xlink:href="#HelveticaNeue-31" transform="translate(272.299942 0)"/>
     <use xlink:href="#HelveticaNeue-2e" transform="translate(327.899933 0)"/>
     <use xlink:href="#HelveticaNeue-34" transform="translate(355.699921 0)"/>
     <use xlink:href="#HelveticaNeue-34" transform="translate(411.299911 0)"/>
     <use xlink:href="#HelveticaNeue-42" transform="translate(466.899902 0)"/>
    </g>
    <!-- China: 1.41B -->
    <g transform="translate(76.908625 97.037601) scale(0.1 -0.1)">
     <use xlink:href="#HelveticaNeue-43"/>
     <use xlink:href="#HelveticaNeue-68" transform="translate(72.199982 0)"/>
     <use xlink:href="#HelveticaNeue-69" transform="translate(127.799973 0)"/>
     <use xlink:href="#HelveticaNeue-6e" transform="translate(149.999969 0)"/>
     <use xlink:href="#HelveticaNeue-61" transform="translate(205.59996 0)"/>
     <use xlink:href="#HelveticaNeue-3a" transform="translate(259.299957 0)"/>
     <use xlink:href="#HelveticaNeue-20" transform="translate(287.099945 0)"/>
     <use xlink:href="#HelveticaNeue-31" transform="translate(314.899933 0)"/>
     <use xlink:href="#HelveticaNeue-2e" transform="translate(370.499924 0)"/>
     <use xlink:href="#HelveticaNeue-34" transform="translate(398.299911 0)"/>
     <use xlink:href="#HelveticaNeue-31" transform="translate(453.899902 0)"/>
     <use xlink:href="#HelveticaNeue-42" transform="translate(509.499893 0)"/>
    </g>
   </g>
   <g id="text_19">
    <!-- The Great Population Crossover: China vs India -->
    <g style="fill: #2c3e50" transform="translate(411.519062 24.532639) scale(0.18 -0.18)">
     <defs>
      <path id="HelveticaNeue-54" d="M 1536 4058 
L 1536 0 
L 2144 0 
L 2144 4058 
L 3667 4058 
L 3667 4570 
L 13 4570 
L 13 4058 
L 1536 4058 
z
" transform="scale(0.015625)"/>
      <path id="HelveticaNeue-76" d="M 1901 0 
L 3110 3309 
L 2541 3309 
L 1638 550 
L 1626 550 
L 698 3309 
L 90 3309 
L 1318 0 
L 1901 0 
z
" transform="scale(0.015625)"/>
     </defs>
     <use xlink:href="#HelveticaNeue-54"/>
     <use xlink:href="#HelveticaNeue-68" transform="translate(57.399994 0)"/>
     <use xlink:href="#HelveticaNeue-65" transform="translate(112.999985 0)"/>
     <use xlink:href="#HelveticaNeue-20" transform="translate(166.699982 0)"/>
     <use xlink:href="#HelveticaNeue-47" transform="translate(194.499969 0)"/>
     <use xlink:href="#HelveticaNeue-72" transform="translate(270.399963 0)"/>
     <use xlink:href="#HelveticaNeue-65" transform="translate(301.949951 0)"/>
     <use xlink:href="#HelveticaNeue-61" transform="translate(355.649948 0)"/>
     <use xlink:href="#HelveticaNeue-74" transform="translate(409.349945 0)"/>
     <use xlink:href="#HelveticaNeue-20" transform="translate(440.84993 0)"/>
     <use xlink:href="#HelveticaNeue-50" transform="translate(468.649918 0)"/>
     <use xlink:href="#HelveticaNeue-6f" transform="translate(533.449905 0)"/>
     <use xlink:href="#HelveticaNeue-70" transform="translate(590.849899 0)"/>
     <use xlink:href="#HelveticaNeue-75" transform="translate(650.149887 0)"/>
     <use xlink:href="#HelveticaNeue-6c" transform="translate(705.749878 0)"/>
     <use xlink:href="#HelveticaNeue-61" transform="translate(727.949875 0)"/>
     <use xlink:href="#HelveticaNeue-74" transform="translate(781.649872 0)"/>
     <use xlink:href="#HelveticaNeue-69" transform="translate(813.149857 0)"/>
     <use xlink:href="#HelveticaNeue-6f" transform="translate(835.349854 0)"/>
     <use xlink:href="#HelveticaNeue-6e" transform="translate(892.749847 0)"/>
     <use xlink:href="#HelveticaNeue-20" transform="translate(948.349838 0)"/>
     <use xlink:href="#HelveticaNeue-43" transform="translate(976.149826 0)"/>
     <use xlink:href="#HelveticaNeue-72" transform="translate(1048.349808 0)"/>
     <use xlink:href="#HelveticaNeue-6f" transform="translate(1079.899796 0)"/>
     <use xlink:href="#HelveticaNeue-73" transform="translate(1137.299789 0)"/>
     <use xlink:href="#HelveticaNeue-73" transform="translate(1187.299774 0)"/>
     <use xlink:href="#HelveticaNeue-6f" transform="translate(1237.299759 0)"/>
     <use xlink:href="#HelveticaNeue-76" transform="translate(1294.699753 0)"/>
     <use xlink:href="#HelveticaNeue-65" transform="translate(1344.699738 0)"/>
     <use xlink:href="#HelveticaNeue-72" transform="translate(1398.399734 0)"/>
     <use xlink:href="#HelveticaNeue-3a" transform="translate(1431.699722 0)"/>
     <use xlink:href="#HelveticaNeue-20" transform="translate(1459.49971 0)"/>
     <use xlink:href="#HelveticaNeue-43" transform="translate(1487.299698 0)"/>
     <use xlink:href="#HelveticaNeue-68" transform="translate(1559.49968 0)"/>
     <use xlink:href="#HelveticaNeue-69" transform="translate(1615.09967 0)"/>
     <use xlink:href="#HelveticaNeue-6e" transform="translate(1637.299667 0)"/>
     <use xlink:href="#HelveticaNeue-61" transform="translate(1692.899658 0)"/>
     <use xlink:href="#HelveticaNeue-20" transform="translate(1746.599655 0)"/>
     <use xlink:href="#HelveticaNeue-76" transform="translate(1774.399643 0)"/>
     <use xlink:href="#HelveticaNeue-73" transform="translate(1824.399628 0)"/>
     <use xlink:href="#HelveticaNeue-20" transform="translate(1874.399612 0)"/>
     <use xlink:href="#HelveticaNeue-49" transform="translate(1902.1996 0)"/>
     <use xlink:href="#HelveticaNeue-6e" transform="translate(1928.099594 0)"/>
     <use xlink:href="#HelveticaNeue-64" transform="translate(1983.699585 0)"/>
     <use xlink:href="#HelveticaNeue-69" transform="translate(2042.999573 0)"/>
     <use xlink:href="#HelveticaNeue-61" transform="translate(2065.19957 0)"/>
    </g>
   </g>
   <g id="legend_1">
    <g id="patch_8">
     <path d="M 65.420625 89.998889 
L 134.93625 89.998889 
Q 137.33625 89.998889 137.33625 87.598889 
L 137.33625 54.932639 
Q 137.33625 52.532639 134.93625 52.532639 
L 65.420625 52.532639 
Q 63.020625 52.532639 63.020625 54.932639 
L 63.020625 87.598889 
Q 63.020625 89.998889 65.420625 89.998889 
z
" style="fill: #4d4d4d; opacity: 0.5; stroke: #4d4d4d; stroke-width: 0.5; stroke-linejoin: miter"/>
    </g>
    <g id="patch_9">
     <path d="M 63.420625 87.998889 
L 132.93625 87.998889 
Q 135.33625 87.998889 135.33625 85.598889 
L 135.33625 52.932639 
Q 135.33625 50.532639 132.93625 50.532639 
L 63.420625 50.532639 
Q 61.020625 50.532639 61.020625 52.932639 
L 61.020625 85.598889 
Q 61.020625 87.998889 63.420625 87.998889 
z
" style="fill: #ffffff; stroke: #bdc3c7; stroke-width: 0.5; stroke-linejoin: miter"/>
    </g>
    <g id="line2d_30">
     <path d="M 65.820625 59.701389 
L 77.820625 59.701389 
L 89.820625 59.701389 
" style="fill: none; stroke: #d62728; stroke-opacity: 0.9; stroke-width: 3; stroke-linecap: square"/>
    </g>
    <g id="text_20">
     <!-- China -->
     <g transform="translate(99.420625 63.901389) scale(0.12 -0.12)">
      <use xlink:href="#HelveticaNeue-43"/>
      <use xlink:href="#HelveticaNeue-68" transform="translate(72.199982 0)"/>
      <use xlink:href="#HelveticaNeue-69" transform="translate(127.799973 0)"/>
      <use xlink:href="#HelveticaNeue-6e" transform="translate(149.999969 0)"/>
      <use xlink:href="#HelveticaNeue-61" transform="translate(205.59996 0)"/>
     </g>
    </g>
    <g id="line2d_31">
     <path d="M 65.820625 76.634514 
L 77.820625 76.634514 
L 89.820625 76.634514 
" style="fill: none; stroke: #ff7f0e; stroke-opacity: 0.9; stroke-width: 3; stroke-linecap: square"/>
    </g>
    <g id="text_21">
     <!-- India -->
     <g transform="translate(99.420625 80.834514) scale(0.12 -0.12)">
      <use xlink:href="#HelveticaNeue-49"/>
      <use xlink:href="#HelveticaNeue-6e" transform="translate(25.899994 0)"/>
      <use xlink:href="#HelveticaNeue-64" transform="translate(81.499985 0)"/>
      <use xlink:href="#HelveticaNeue-69" transform="translate(140.799973 0)"/>
      <use xlink:href="#HelveticaNeue-61" transform="translate(162.999969 0)"/>
     </g>
    </g>
   </g>
   <g id="PathCollection_1">
    <defs>
     <path id="m459b33a6ff" d="M 0 7.071068 
C 1.875269 7.071068 3.673985 6.326016 5 5 
C 6.326016 3.673985 7.071068 1.875269 7.071068 0 
C 7.071068 -1.875269 6.326016 -3.673985 5 -5 
C 3.673985 -6.326016 1.875269 -7.071068 0 -7.071068 
C -1.875269 -7.071068 -3.673985 -6.326016 -5 -5 
C -6.326016 -3.673985 -7.071068 -1.875269 -7.071068 0 
C -7.071068 1.875269 -6.326016 3.673985 -5 5 
C -3.673985 6.326016 -1.875269 7.071068 0 7.071068 
z
" style="stroke: #2c3e50; stroke-opacity: 0.8; stroke-width: 0.5"/>
    </defs>
    <g clip-path="url(#p5207a7defa)">
     <use xlink:href="#m459b33a6ff" x="1068.090755" y="89.756457" style="fill: #2c3e50; fill-opacity: 0.8; stroke: #2c3e50; stroke-opacity: 0.8; stroke-width: 0.5"/>
    </g>
   </g>
  </g>
 </g>
 <defs>
  <clipPath id="p5207a7defa">
   <rect x="55.020625" y="44.532639" width="1094.4" height="673.92"/>
  </clipPath>
 </defs>
</svg>
